<?xml version="1.0" encoding="utf-8"?>
<svg version="1.1" xmlns:xlink="http://www.w3.org/1999/xlink" width="142px" height="137px" xmlns="http://www.w3.org/2000/svg">
  <g transform="matrix(1 0 0 1 -33 -33 )">
    <path d="M 33 33  L 175 33  L 175 170  L 33 170  L 33 33  " fill-rule="nonzero" fill="#cccccc" stroke="none" />
    <path d="M 43 43  L 165 43  L 165 160  L 43 160  L 43 43  " fill-rule="nonzero" fill="#ffffff" stroke="none" />
    <path d="M 117.115 74.1  C 111.361 74.1  106.84 69.579  106.84 63.825  C 106.84 58.071  111.361 53.55  117.115 53.55  C 122.869 53.55  127.39 58.071  127.39 63.825  C 127.39 69.579  122.869 74.1  117.115 74.1  " fill-rule="nonzero" fill="#cccccc" stroke="none" />
    <path d="M 47 157  L 47 96.5  L 75.75 69  L 116 93.3239436619718  L 139 85.5  L 162 93.3239436619718  L 162 157  L 47 157  " fill-rule="nonzero" fill="#169bd5" stroke="none" />
  </g>
</svg>