<?xml version="1.0" encoding="utf-8"?>
<svg version="1.1" xmlns:xlink="http://www.w3.org/1999/xlink" width="24px" height="25px" xmlns="http://www.w3.org/2000/svg">
  <g transform="matrix(1 0 0 1 -215 -82 )">
    <path d="M 23.046875 7.64973958333333  C 23.6822916666667 9.19053819444444  24 10.8072916666667  24 12.5  C 24 14.1927083333333  23.6822916666667 15.8094618055556  23.046875 17.3502604166667  C 22.4114583333333 18.8910590277778  21.5572916666667 20.2202690972222  20.484375 21.337890625  C 19.4114583333333 22.4555121527778  18.1354166666667 23.3452690972222  16.65625 24.0071614583333  C 15.1770833333333 24.6690538194444  13.625 25  12 25  C 10.2083333333333 25  8.50520833333333 24.6066623263889  6.890625 23.8199869791667  C 5.27604166666667 23.0333116319444  3.90104166666667 21.923828125  2.765625 20.4915364583333  C 2.69270833333333 20.3830295138889  2.65885416666667 20.2609592013889  2.6640625 20.1253255208333  C 2.66927083333333 19.9896918402778  2.71354166666667 19.8784722222222  2.796875 19.7916666666667  L 4.9375 17.5455729166667  C 5.04166666666667 17.4479166666667  5.171875 17.3990885416667  5.328125 17.3990885416667  C 5.49479166666667 17.4207899305556  5.61458333333333 17.4858940972222  5.6875 17.5944010416667  C 6.44791666666667 18.6252170138889  7.38020833333333 19.4227430555556  8.484375 19.9869791666667  C 9.58854166666667 20.5512152777778  10.7604166666667 20.8333333333333  12 20.8333333333333  C 13.0833333333333 20.8333333333333  14.1171875 20.6136067708333  15.1015625 20.1741536458333  C 16.0859375 19.7347005208333  16.9375 19.140625  17.65625 18.3919270833333  C 18.375 17.6432291666667  18.9453125 16.7561848958333  19.3671875 15.7307942708333  C 19.7890625 14.7054036458333  20 13.6284722222222  20 12.5  C 20 11.3715277777778  19.7890625 10.2945963541667  19.3671875 9.26920572916667  C 18.9453125 8.24381510416667  18.375 7.35677083333333  17.65625 6.60807291666667  C 16.9375 5.859375  16.0859375 5.26529947916667  15.1015625 4.82584635416667  C 14.1171875 4.38639322916667  13.0833333333333 4.16666666666667  12 4.16666666666667  C 10.9791666666667 4.16666666666667  10 4.35926649305556  9.0625 4.74446614583333  C 8.125 5.12966579861111  7.29166666666667 5.68033854166667  6.5625 6.396484375  L 8.703125 8.642578125  C 9.02604166666667 8.96809895833333  9.09895833333333 9.34244791666667  8.921875 9.765625  C 8.74479166666667 10.1996527777778  8.4375 10.4166666666667  8 10.4166666666667  L 1 10.4166666666667  C 0.729166666666667 10.4166666666667  0.494791666666667 10.3135850694444  0.296875 10.107421875  C 0.0989583333333333 9.90125868055556  0 9.65711805555556  0 9.375  L 0 2.08333333333333  C 0 1.62760416666667  0.208333333333333 1.30750868055556  0.625 1.123046875  C 1.03125 0.938585069444442  1.390625 1.01453993055556  1.703125 1.35091145833333  L 3.734375 3.45052083333333  C 4.84895833333333 2.35460069444444  6.12239583333333 1.50553385416667  7.5546875 0.9033203125  C 8.98697916666667 0.301106770833334  10.46875 0  12 0  C 13.625 0  15.1770833333333 0.330946180555555  16.65625 0.992838541666666  C 18.1354166666667 1.65473090277778  19.4114583333333 2.54448784722222  20.484375 3.662109375  C 21.5572916666667 4.77973090277778  22.4114583333333 6.10894097222222  23.046875 7.64973958333333  Z " fill-rule="nonzero" fill="#000000" stroke="none" transform="matrix(1 0 0 1 215 82 )" />
  </g>
</svg>