<?xml version="1.0" encoding="utf-8"?>
<svg version="1.1" xmlns:xlink="http://www.w3.org/1999/xlink" width="206px" height="178px" xmlns="http://www.w3.org/2000/svg">
  <g transform="matrix(1 0 0 1 -84 -20 )">
    <path d="M 84 20  L 290 20  L 290 198  L 84 198  L 84 20  " fill-rule="nonzero" fill="#cccccc" stroke="none" />
    <path d="M 96 32  L 278 32  L 278 186  L 96 186  L 96 32  " fill-rule="nonzero" fill="#ffffff" stroke="none" />
    <path d="M 204.47 73.4  C 196.994 73.4  191.12 67.526  191.12 60.05  C 191.12 52.574  196.994 46.7  204.47 46.7  C 211.946 46.7  217.82 52.574  217.82 60.05  C 217.82 67.526  211.946 73.4  204.47 73.4  " fill-rule="nonzero" fill="#cccccc" stroke="none" />
    <path d="M 101 182  L 101 102.25  L 144.25 66  L 204.8 106.825242718447  L 239.4 87.75  L 274 106.825242718447  L 274 182  L 101 182  " fill-rule="nonzero" fill="#169bd5" stroke="none" />
  </g>
</svg>